<svg fill="none" height="72" width="86" xmlns="http://www.w3.org/2000/svg"><radialGradient id="a" cx="0" cy="0" gradientTransform="matrix(-34.30886 25.53487 -29.29641 -39.3629 51.907 43.953)" gradientUnits="userSpaceOnUse" r="1"><stop offset=".437" stop-color="#ff2470"/><stop offset=".674" stop-color="#fe861d" stop-opacity=".72"/><stop offset=".906" stop-color="#fe861d" stop-opacity="0"/></radialGradient><linearGradient id="b" gradientUnits="userSpaceOnUse" x1="61.535" x2="36.419" y1="50.651" y2="22.186"><stop offset="0" stop-color="#ff2175"/><stop offset="1" stop-color="#ff8c00"/></linearGradient><linearGradient id="d" gradientUnits="userSpaceOnUse" x1="41.442" x2="10.884" y1="20.093" y2="0"><stop offset="0" stop-color="#f52a5f"/><stop offset="1" stop-color="#ff8c00"/></linearGradient><mask id="c" fill="#fff"><path d="M27.628 43.116a28.883 28.883 0 0128.884-28.883v13.864a15.02 15.02 0 00-15.02 15.02z"/></mask><circle cx="45.628" cy="35.581" fill="url(#a)" r="33.907"/><g stroke="#000"><circle cx="56.512" cy="43.116" fill="#fff" r="28.384"/><circle cx="56.512" cy="43.116" fill="url(#b)" r="14.988"/><path d="M27.628 43.116a28.883 28.883 0 0128.884-28.883v13.864a15.02 15.02 0 00-15.02 15.02z" fill="#000" mask="url(#c)" stroke-width="2"/></g><path clip-rule="evenodd" d="M5.86 0h5.86L5.86 7.535l5.86 7.535H5.86L0 7.535zm26.791 0h-5.86l5.86 7.535-5.86 7.535h5.86l5.86-7.535zM24.28 0h-5.023l-5.023 15.07h5.023z" fill="url(#d)" fill-rule="evenodd"/><rect fill="#000" height="1.674" rx=".837" width="25.116" y="70.326"/><path d="M10.384 71.163V51.07M15.407 71.163V43.535M20.43 71.163V25.116" stroke="#000"/></svg>