<svg xmlns="http://www.w3.org/2000/svg" class="_valve sprite-img customers-list__logo" xmlns:xlink="http://www.w3.org/1999/xlink"><symbol xmlns="http://www.w3.org/2000/svg" viewBox="0 0 275 75" id="a"><path d="M.01.243l263.776.209V75H0C0 50.285.01.243.01.243zm7.594 8.012V67.38h248.578V8.255H7.604"/><path d="M82.788 15.854h11.831l12.457 43.937H98.21L95.25 48.81H82.157s-2.27 8.832-2.752 10.769c-2.632.208-9.074 0-9.074 0l12.457-43.724zm5.702 7.4l-4.65 18.577h9.716L88.49 23.255M218.79 15.854h18.17v5.707h-11.836v6.328h10.778v5.707h-10.778v6.536h11.836v5.712h-18.373zM165.998 15.854h8.876l8.439 32.742 8.24-32.742h8.87l-13.31 43.937h-7.819zM128.622 15.854h8.454v36.537h18.357v7.395H128.41zM23.017 15.854h8.672l8.443 33.16 8.23-33.16h9.09L44.136 59.791h-8.027zM270.089 0a4.327 4.327 0 014.296 4.386 4.332 4.332 0 11-8.662 0A4.365 4.365 0 01270.063 0h.026zm-.05.695a3.605 3.605 0 00-3.502 3.69 3.59 3.59 0 003.532 3.706 3.537 3.537 0 003.492-3.675 3.595 3.595 0 00-3.492-3.72h-.03zm-.82 6.234h-.764V2.046a9.048 9.048 0 011.375-.114 2.71 2.71 0 011.515.363 1.164 1.164 0 01.442 1.013 1.226 1.226 0 01-.943 1.197v.035c.427.08.72.477.824 1.177a3.773 3.773 0 00.303 1.207h-.814a4.22 4.22 0 01-.313-1.227.905.905 0 00-1.043-.864h-.547v2.096h-.034zm0-2.697h.567c.636 0 1.182-.239 1.182-.84 0-.427-.313-.854-1.182-.854a3.252 3.252 0 00-.566.04v1.654"/></symbol><use xlink:href="#a"/></svg>