<svg xmlns="http://www.w3.org/2000/svg" class="_google sprite-img customers-list__logo" xmlns:xlink="http://www.w3.org/1999/xlink"><symbol xmlns="http://www.w3.org/2000/svg" xmlns:xlink="http://www.w3.org/1999/xlink" viewBox="0 0 929.8 306.7" id="a"><g fill-rule="evenodd" clip-rule="evenodd"><path d="M177.3 57c-7.7-7.3-16.9-13.1-27-17.1-9.7-3.8-20.3-6-31.4-6-23.6 0-44.8 9.5-60.1 24.9C43.4 74.2 34 95.6 34 119.3c0 23.7 9.5 45.1 24.8 60.5 15.3 15.4 36.5 24.9 60 24.9 4.5 0-2.4.1 1.3.1 23.1-.2 42.5-7.3 55.8-20.4 10.4-10.2 17.4-24.2 19.9-41.7h-76.1v-34h110.8l.2 16.9v1.6c0 34.5-11.4 62.1-31.1 81.4-19.7 19.2-47.1 29.7-79.3 30.1h-1.6c.5 0 2.1 0 0 0-32.9 0-62.6-13.4-84.1-35C13.3 182 0 152.2 0 119.3 0 86.4 13.3 56.6 34.8 35 56.3 13.3 86 0 118.8 0c15.5 0 30.3 3 43.9 8.3 14.1 5.6 26.9 13.8 37.8 24L177.3 57zm-58.5 181.6c-.2 0-.1 0 0 0zm112-111.5c0 .3 0 .2 0 0zm0 0c0-.5.1-2 0 0z" fill="#5476b9"/><path d="M320.3 85.4c21.3 0 40.6 8.6 54.5 22.4 14 13.8 22.6 32.9 22.6 53.8 0 21-8.6 40-22.6 53.8-14 13.8-33.2 22.4-54.5 22.4-21.3 0-40.6-8.6-54.5-22.4-14-13.8-22.6-32.9-22.6-53.8 0-21 8.6-40 22.6-53.8 14-13.8 33.2-22.4 54.5-22.4zm31.2 43.9c-8-8.2-19-13.3-31.2-13.3s-23.2 5.1-31.2 13.3c-8 8.2-12.9 19.7-12.9 32.4s4.9 24.1 12.9 32.4c8 8.2 19 13.3 31.2 13.3s23.2-5.1 31.2-13.3c8-8.2 12.9-19.7 12.9-32.4s-4.9-24.2-12.9-32.4z" fill="#dc3d2c"/><path d="M486.1 85.4c21.3 0 40.6 8.6 54.5 22.4 14 13.8 22.6 32.9 22.6 53.8 0 21-8.6 40-22.6 53.8-14 13.8-33.2 22.4-54.5 22.4s-40.6-8.6-54.5-22.4c-14-13.8-22.6-32.9-22.6-53.8 0-21 8.6-40 22.6-53.8 14-13.8 33.3-22.4 54.5-22.4zm31.2 43.9c-8-8.2-19-13.3-31.2-13.3s-23.2 5.1-31.2 13.3c-8 8.2-12.9 19.7-12.9 32.4s4.9 24.1 12.9 32.4c8 8.2 19 13.3 31.2 13.3s23.2-5.1 31.2-13.3c8-8.2 12.9-19.7 12.9-32.4.1-12.7-4.9-24.2-12.9-32.4z" fill="#f7b519"/><path d="M644.8 85.4c20.8 0 33.3 6.6 44.7 17.6V89.7H721V235c0 20.3-9.5 42.2-22.4 53.7-12.4 11-29.1 18-45.6 18-15.1 0-30.2-2.9-43.5-11.1-11.8-7.2-21.8-18.1-28.7-33.3l28.9-13c8.2 18.1 20.4 27.4 43.2 27.4 16.2 0 36.5-15 36.5-39.7v-16.7c-11.5 11-24.5 17.6-41.4 17.6-19.3 0-39.9-8.6-52.6-22.4-12.6-13.8-20.4-32.9-20.4-53.8.1-42.4 35.1-76.3 69.8-76.3zm35.6 43.9c-7.6-8.2-18.1-13.3-29.7-13.3-11.6 0-22.1 5.1-29.7 13.3-7.6 8.2-12.3 19.7-12.3 32.4 0 25.7 17.3 46.5 42 46.5 11.6 0 22.1-5.9 29.7-14.2 7.6-8.2 12.3-19.7 12.3-32.4 0-12.6-4.7-24.1-12.3-32.3z" fill="#5476b9"/><path fill="#28a235" d="M741.4 9.8H774v223.7h-32.6z"/><path d="M821.7 159l69.3-27.9c-12.2-15.7-30-23.4-53.4-7.4-9 7.6-16.9 20.6-15.9 35.3zm5.2 25.8c12.8 30.5 58 30.9 75.1 2.3l25.8 17.3c-15.8 23.1-38.8 34-63.8 34.1-22.3 0-40.3-8.3-53.7-21.9-32.8-33.1-25.8-83.9-3.1-107.9 18.5-19.6 47.1-29.6 76.6-18.9 19.2 7 34.7 23.8 46.1 53.1-34.4 13.9-68.7 28.1-103 41.9z" fill="#dc3d2c"/></g></symbol><use xlink:href="#a"/></svg>