<svg xmlns="http://www.w3.org/2000/svg" viewBox="0 0 24 24" class="wt-icon wt-icon_size_m _wt-button__icon_1xl2g87_687"><path d="M11.63 16.615c-1.14-.692-3.111-2.364-3.153-2.328a28.33 28.33 0 01-3.301 2.262c-.689.397-1.39.496-1.82-.091a.992.992 0 01.266-1.404c.008-.004 2.446-1.594 3.26-2.297a11.644 11.644 0 01-2.233-3.535 1.078 1.078 0 01.527-1.369c.527-.222 1.049-.126 1.486.62a10.333 10.333 0 001.815 2.895 10.853 10.853 0 002.156-4.347L3 7V4.993h4.812V4a.986.986 0 111.972 0v.994h5.17V7h-2.086a17.039 17.039 0 01-2.641 5.757 15.882 15.882 0 002.301 1.66l2.31-5.666a1.162 1.162 0 012.18.016l3.01 7.39 1.857 4.384H19.41l-1.083-2.539h-4.84l-.889 2.54H10l.287-.692zm4.313-5.168l-1.676 4.555h3.351z"/></svg>