<svg xmlns="http://www.w3.org/2000/svg" class="_netflix sprite-img customers-list__logo" xmlns:xlink="http://www.w3.org/1999/xlink"><symbol xmlns="http://www.w3.org/2000/svg" viewBox="0 0 256 70" id="a"><path d="M35.2 64.726c-3.85.676-7.769.879-11.823 1.419L11.013 29.931v37.768c-3.851.406-7.364.946-11.013 1.487V0h10.27l14.053 39.255V0h10.878v64.726zm21.283-39.39c4.19 0 10.608-.202 14.46-.202v10.81c-4.798 0-10.405 0-14.46.203v16.08c6.352-.405 12.703-.946 19.121-1.149v10.404l-29.931 2.366V0h29.931v10.81h-19.12zm59.322-14.525h-11.216v49.727c-3.648 0-7.297 0-10.81.134V10.811H82.564V0h33.241zm17.566 13.783h14.797v10.81H133.37V59.93h-10.608V0h30.202v10.81H133.37zm37.16 25.876c6.149.135 12.364.609 18.378.946v10.675c-9.662-.608-19.323-1.215-29.188-1.419V0h10.81v50.47zm27.499 12.365c3.446.203 7.094.405 10.607.81V0H198.03zM256 0l-13.716 32.904L256 69.186c-4.054-.541-8.108-1.284-12.162-1.96l-7.77-19.998-7.904 18.377c-3.92-.676-7.703-.879-11.62-1.42l13.917-31.687L217.894 0h11.62l7.095 18.175L244.176 0H256z" fill="#d81f26"/></symbol><use xlink:href="#a"/></svg>