<svg xmlns="http://www.w3.org/2000/svg" class="_learn sprite-img product-card__icon" xmlns:xlink="http://www.w3.org/1999/xlink"><symbol xmlns="http://www.w3.org/2000/svg" fill="none" viewBox="0 0 96 96" id="f"><path fill-rule="evenodd" clip-rule="evenodd" d="M32.293 32.08h24v-12h-24v12z" fill="url(#a)"/><path fill-rule="evenodd" clip-rule="evenodd" d="M8 90h24V6H8v84z" fill="url(#b)"/><path d="M56.5 6.5v83h-24v-83h24z" stroke="#fff" vector-effect="non-scaling-stroke"/><path fill-rule="evenodd" clip-rule="evenodd" d="M78.618 18.621l-1.557-12.5H57.228l1.558 12.5h19.832z" fill="url(#c)"/><path fill-rule="evenodd" clip-rule="evenodd" d="M80.49 33.633H60.656L67.67 89.88h19.833L80.49 33.633z" fill="url(#d)"/><path d="M60.886 32.295h18.926M78.288 20.08H59.362" stroke="#fff" vector-effect="non-scaling-stroke" stroke-linecap="round"/><path fill-rule="evenodd" clip-rule="evenodd" d="M8.293 32.08h24v-12h-24v12z" fill="url(#e)"/><path d="M78.756 26.389H59.83" stroke="#fff" vector-effect="non-scaling-stroke" stroke-linecap="round"/><defs><linearGradient id="a" x1="31.116" y1="30.794" x2="62.006" y2="45.407" gradientUnits="userSpaceOnUse"><stop stop-color="#C1EB4E"/><stop offset=".553" stop-color="#159CD6"/><stop offset=".999" stop-color="#006C87"/></linearGradient><linearGradient id="b" x1="10.445" y1="94.365" x2="53.915" y2="94.716" gradientUnits="userSpaceOnUse"><stop stop-color="#C1EB4E"/><stop offset=".553" stop-color="#159CD6"/><stop offset=".999" stop-color="#006C87"/></linearGradient><linearGradient id="c" x1="47.523" y1="16.723" x2="64.326" y2="40.554" gradientUnits="userSpaceOnUse"><stop stop-color="#C1EB4E"/><stop offset=".553" stop-color="#159CD6"/><stop offset=".999" stop-color="#006C87"/></linearGradient><linearGradient id="d" x1="62.477" y1="78.615" x2="97.747" y2="80.152" gradientUnits="userSpaceOnUse"><stop stop-color="#C1EB4E"/><stop offset=".553" stop-color="#159CD6"/><stop offset=".999" stop-color="#006C87"/></linearGradient><linearGradient id="e" x1="8.293" y1="31.659" x2="38.189" y2="31.659" gradientUnits="userSpaceOnUse"><stop stop-color="#C1EB4E"/><stop offset=".553" stop-color="#159CD6"/><stop offset=".999" stop-color="#006C87"/></linearGradient></defs></symbol><use xlink:href="#f"/></svg>