<svg xmlns="http://www.w3.org/2000/svg" class="_team sprite-img product-card__icon" xmlns:xlink="http://www.w3.org/1999/xlink"><symbol xmlns="http://www.w3.org/2000/svg" viewBox="0 0 96 96" id="d"><path clip-rule="evenodd" fill="none" stroke="#FFF" vector-effect="non-scaling-stroke" stroke-miterlimit="10" d="M76.5 14c4.2 0 7.5 3.4 7.5 7.5 0 4.2-3.4 7.5-7.5 7.5h-7c-4.2 0-7.5-3.4-7.5-7.5 0-4.2 3.4-7.5 7.5-7.5h7z"/><path fill="none" stroke="#FFF" stroke-miterlimit="10" vector-effect="non-scaling-stroke" d="M31.8 42c5.4 0 8.2 3.3 8.2 9.7 0 4.9-1.9 25.5-3.1 29.9-.4 1.4-1.7 2.4-3.1 2.4H14.2c-1.4 0-2.7-1-3.1-2.4C9.9 77.2 8 56.6 8 51.7c0-6.4 2.8-9.7 8.2-9.7h15.6z"/><linearGradient id="a" gradientUnits="userSpaceOnUse" x1="18.483" y1="-598.651" x2="82.133" y2="-672.606" gradientTransform="matrix(1 0 0 -1 0 -572)"><stop offset="0" stop-color="#63c2ff"/><stop offset=".473" stop-color="#a456f4"/><stop offset="1" stop-color="#2e34e6"/></linearGradient><path fill-rule="evenodd" clip-rule="evenodd" fill="url(#a)" d="M57.2 34H38.8C32.1 34 28 37.8 28 45.8c0 5.5 4.3 36.9 5.7 41.8.6 2.1 2.5 3.5 4.8 3.5h19c2.2 0 4.2-1.4 4.8-3.5 1.4-4.8 5.7-36.2 5.7-41.8 0-8-4.1-11.8-10.8-11.8z"/><linearGradient id="b" gradientUnits="userSpaceOnUse" x1="40.446" y1="-572.149" x2="58.428" y2="-609.882" gradientTransform="matrix(1 0 0 -1 0 -572)"><stop offset="0" stop-color="#63c2ff"/><stop offset=".473" stop-color="#a456f4"/><stop offset="1" stop-color="#2e34e6"/></linearGradient><path fill-rule="evenodd" clip-rule="evenodd" fill="url(#b)" d="M57 16c0 5-4 9-9 9s-9-4-9-9 4-9 9-9 9 4 9 9z"/><path fill="none" stroke="#FFF" stroke-miterlimit="10" vector-effect="non-scaling-stroke" d="M81.3 42c5.8 0 8.7 3.3 8.7 9.7 0 4.9-2 25.5-3.3 29.9-.4 1.4-1.8 2.4-3.3 2.4H62.6c-1.5 0-2.9-1-3.3-2.4-1.3-4.4-3.3-25-3.3-29.9 0-6.4 2.9-9.7 8.7-9.7h16.6z"/><linearGradient id="c" gradientUnits="userSpaceOnUse" x1="11.488" y1="-573.146" x2="40.097" y2="-615.668" gradientTransform="matrix(1 0 0 -1 0 -572)"><stop offset="0" stop-color="#63c2ff"/><stop offset=".473" stop-color="#a456f4"/><stop offset="1" stop-color="#2e34e6"/></linearGradient><path fill-rule="evenodd" clip-rule="evenodd" fill="url(#c)" d="M15 15.5v7c0 4.7 3.8 8.5 8.5 8.5s8.5-3.8 8.5-8.5v-7c0-4.7-3.8-8.5-8.5-8.5S15 10.8 15 15.5z"/></symbol><use xlink:href="#d"/></svg>