<svg viewBox="0 0 72 72" fill="none" xmlns="http://www.w3.org/2000/svg"><path d="M19.845 60.014L6.048 23.733a15.182 15.182 0 0113.77-20.579 15.175 15.175 0 0114.81 10.45L46.705 50.49c2.434 7.44-24.13 16.711-26.86 9.525z" fill="url(#paint0_linear)"/><path d="M61.241 48.5L27.428 66.79a16.355 16.355 0 01-22.697-7.68 16.389 16.389 0 018.805-21.943l35.657-14.4a14.188 14.188 0 0116.834 4.882 14.235 14.235 0 01-4.786 20.853z" fill="url(#paint1_linear)"/><path d="M48.466 48.816L13.55 31.941A15.196 15.196 0 019.435 7.515a15.14 15.14 0 0117.939-2.592l34.08 18.515a14.277 14.277 0 015.8 19.2 14.235 14.235 0 01-18.788 6.178z" fill="url(#paint2_linear)"/><path d="M12.74 67.426A16.526 16.526 0 016.858 41.87l29.539-35.7a8.229 8.229 0 019.731-2.262 8.263 8.263 0 014.395 10.285l-15.4 43.7a16.457 16.457 0 01-22.382 9.532z" fill="url(#paint3_linear)"/><path d="M15.429 15.429H56.57V56.57H15.43V15.43z" fill="#000"/><path d="M20.558 48.795h15.428v2.572H20.558v-2.572zm4.148-25.145h-4.71v-3.14h12.822v3.14h-4.71v12.336h-3.402V23.65zm9.394 4.643v-.041a7.86 7.86 0 018.072-8.003 7.98 7.98 0 016.102 2.38l-2.166 2.496a5.72 5.72 0 00-3.964-1.749c-2.606 0-4.484 2.167-4.484 4.8v.048c0 2.654 1.837 4.862 4.484 4.862 1.77 0 2.853-.686 4.073-1.81l2.167 2.187a7.92 7.92 0 01-6.35 2.743 7.809 7.809 0 01-7.933-7.913z" fill="#fff"/><defs><linearGradient id="paint0_linear" x1="28.615" y1="43.179" x2="22.985" y2="26.517" gradientUnits="userSpaceOnUse"><stop stop-color="#07C3F2"/><stop offset="1" stop-color="#6B57FF"/></linearGradient><linearGradient id="paint1_linear" x1="26.695" y1="48.83" x2="46.868" y2="38.702" gradientUnits="userSpaceOnUse"><stop stop-color="#07C3F2"/><stop offset="1" stop-color="#009AE5"/></linearGradient><linearGradient id="paint2_linear" x1="52.272" y1="38.921" x2="18.891" y2="13.721" gradientUnits="userSpaceOnUse"><stop stop-color="#009AE5"/><stop offset="1" stop-color="#6B57FF"/></linearGradient><linearGradient id="paint3_linear" x1="17.685" y1="56.249" x2="40.423" y2="9.943" gradientUnits="userSpaceOnUse"><stop offset=".3" stop-color="#07C3F2"/><stop offset=".6" stop-color="#3BEA62"/></linearGradient></defs></svg>