<svg xmlns="http://www.w3.org/2000/svg" class="_ubisoft sprite-img customers-list__logo" xmlns:xlink="http://www.w3.org/1999/xlink"><symbol xmlns="http://www.w3.org/2000/svg" xmlns:xlink="http://www.w3.org/1999/xlink" viewBox="0 0 154.8 16.9" id="a"><path d="M152.3 0c-1.4 0-2.5 1.1-2.5 2.5s1.1 2.5 2.5 2.5 2.5-1.1 2.5-2.5-1.1-2.5-2.5-2.5zm0 4.6c-1.2 0-2.1-.9-2.1-2.1 0-1.2.9-2.1 2.1-2.1 1.2 0 2.1.9 2.1 2.1 0 1.2-.9 2.1-2.1 2.1zm.7-1.8c-.1-.1-.2-.2-.3-.2.2 0 .4-.1.5-.2.1-.1.2-.3.2-.5s0-.3-.1-.4c-.1-.1-.2-.2-.3-.2-.1 0-.3-.1-.6-.1h-1.1v2.6h.5V2.6h.4c.1 0 .1.1.2.1.1.1.1.2.3.4l.4.6h.6l-.3-.5-.4-.4zm-.8-.6h-.4v-.6h.8c.1 0 .2 0 .2.1s.1.1.1.2 0 .1-.1.2c0 .1-.1.1-.1.1h-.5zM74.7 4.6v.2h4.6c0-2.1.1-4.8-4.9-4.8H59.1v6c0 1.7.8 4.5 4.7 4.5h11v.9c0 1.1-.1 1.6-2.2 1.6h-8.1c-.9 0-.9-.8-.9-.8v-.3H59v1.3c0 1.5.6 3.7 4.1 3.7h12.1c2.3 0 4.7-.9 4.7-3.8v-2.8c0-1.7-.4-3.8-4.2-3.8h-8.6c-2.5 0-2.9-.6-2.9-1.7v-.9h9.7c.3 0 .8.1.8.7M15.9 9.6c0 1.1-.2 1.8-.6 2.3-.4.4-1.2.7-2.2.7H8c-1 0-1.8-.2-2.2-.7-.4-.4-.6-1.2-.6-2.3V0H0v10.8c0 2.1.6 3.6 1.7 4.6 1.1 1 2.8 1.5 5.2 1.5H21V0h-5.1v9.6M43.6 8.2c.9-.2 1.5-.6 1.9-1.1.3-.5.5-1.4.5-2.7 0-1.6-.5-2.7-1.4-3.4-1-.7-2.5-1-4.6-1H25.2v16.9h16.3c1.6 0 2.9-.3 3.8-1 .9-.6 1.3-2 1.3-3.6 0-1.3-.2-2.3-.7-2.9-.4-.6-1.2-1-2.3-1.2zM30.3 3.9h9.1c1 0 1.5.4 1.5 1.3 0 .5-.1.9-.4 1.1-.2.2-.6.3-1.1.3h-9.1V3.9zm10.6 8.8c-.3.2-.8.3-1.4.3h-9.2v-2.9h9.2c.6 0 1.1.1 1.4.3.3.2.5.7.5 1.2s-.2.9-.5 1.1M49.9 0H55v16.9h-5.1zM108.8 16.9h5.1v-5.5h11.8V7.1h-11.8V4.3h12.3V0h-17.4v16.9M128.2 0v4.3h7.2v12.6h5.1V4.3h7.2V0h-19.5M89.9 0c-3.2 0-4.4.5-5.5 1.3-1.1.8-1.8 2.2-1.8 4.5v5c0 2.3.6 3.9 1.8 4.8 1.2.9 2.8 1.3 5.6 1.3h7.8c2.8 0 4.2-.4 5.4-1.2 1.2-.9 1.8-2.2 1.8-4.8V0H89.9zm9.8 9.4c0 1.4-.1 2-.6 2.5-.4.5-1.2.7-2.3.7h-6.2c-1.3 0-2-.3-2.3-.7-.4-.4-.6-1.2-.6-2.6V7.4c0-1.2.2-1.9.7-2.4.4-.5 1.3-.8 2.6-.8h8.8v5.2"/></symbol><use xlink:href="#a"/></svg>