<svg xmlns="http://www.w3.org/2000/svg" class="_develop sprite-img product-card__icon" xmlns:xlink="http://www.w3.org/1999/xlink"><symbol xmlns="http://www.w3.org/2000/svg" viewBox="0 0 96 96" id="b"><linearGradient id="a" gradientUnits="userSpaceOnUse" x1="37.777" y1="691.229" x2="73.893" y2="757.542" gradientTransform="translate(0 -670)"><stop offset="0" stop-color="#ff8c00"/><stop offset=".596" stop-color="#f22e83"/><stop offset=".999" stop-color="#002ec7"/></linearGradient><path fill-rule="evenodd" clip-rule="evenodd" fill="url(#a)" d="M17 61h62V19H17v42zm5.3-21l9.1-9h8.1l-9.1 9 9.1 9h-8.1l-9.1-9zm25.5-9.1h6l-5.5 18h-6l5.5-18zM56.7 49l9.1-9-9.1-9h7.9l9.1 9-9.1 9h-7.9z"/><path fill="#D8D8D8" d="M41.5 2h5v5h-5z"/><path vector-effect="non-scaling-stroke" fill="none" stroke="#FFF" d="M81.3 71.8H14.7c-5.4 0-9.7-4.3-9.7-9.7V16.7C5 11.3 9.3 7 14.7 7h66.6c5.4 0 9.7 4.3 9.7 9.7v45.4c0 5.3-4.3 9.7-9.7 9.7z"/><path vector-effect="non-scaling-stroke" fill="none" stroke="#FFF" stroke-miterlimit="10" d="M64.8 81.8H54v-10H42v10.1H31.1c-6.7 0-12.2 5.4-12.2 12.2H77c0-6.8-5.5-12.3-12.2-12.3z"/></symbol><use xlink:href="#b"/></svg>