<svg enable-background="new 0 0 1200 530" viewBox="0 0 1200 530" xmlns="http://www.w3.org/2000/svg" xmlns:xlink="http://www.w3.org/1999/xlink"><linearGradient id="a" gradientTransform="matrix(1 0 0 -1 0 532)" gradientUnits="userSpaceOnUse" x1="1092.5122" x2="542.5122" y1="450.9873" y2="79.9874"><stop offset=".0612798" stop-color="#4516a7"/><stop offset=".2743" stop-color="#2279ff"/><stop offset="1" stop-color="#1a40c6"/></linearGradient><linearGradient id="b" gradientTransform="matrix(1 0 0 -1 0 532)" gradientUnits="userSpaceOnUse" x1="1115.3911" x2="1113.3911" y1="414.6866" y2="124.1866"><stop offset="0" stop-color="#6b24dd"/><stop offset=".7384" stop-color="#ff2d74"/><stop offset=".9988" stop-color="#db0850"/></linearGradient><linearGradient id="c" gradientTransform="matrix(1 0 0 -1 0 532)" gradientUnits="userSpaceOnUse" x1="1017.6899" x2="1187.6899" y1="194.2943" y2="139.7943"><stop offset="0" stop-color="#ff3d00"/><stop offset=".1654" stop-color="#ff813a"/><stop offset="1" stop-color="#ff2b2b"/></linearGradient><linearGradient id="d" gradientTransform="matrix(1 0 0 -1 0 532)" gradientUnits="userSpaceOnUse" x1="960.2567" x2="1039.2737" y1="153.4798" y2="57.4788"><stop offset="0" stop-color="#ffb546"/><stop offset="1" stop-color="#ff3e2f"/></linearGradient><linearGradient id="e" gradientTransform="matrix(1 0 0 -1 0 532)" gradientUnits="userSpaceOnUse" x1="864.2103" x2="889.9673" y1="393.3884" y2="149.2403"><stop offset="0" stop-color="#fcf84a"/><stop offset=".32" stop-color="#abe682"/><stop offset=".79" stop-color="#36cdd2"/><stop offset="1" stop-color="#07c3f2"/></linearGradient><linearGradient id="f" gradientTransform="matrix(1 0 0 -1 0 532)" gradientUnits="userSpaceOnUse" x1="769.7229" x2="1000.7139" y1="389.5513" y2="279.9773"><stop offset="0" stop-color="#3bea62"/><stop offset="1" stop-color="#087cfa"/></linearGradient><linearGradient id="g" gradientTransform="matrix(1 0 0 -1 0 532)" gradientUnits="userSpaceOnUse" x1="790.8963" x2="1023.4663" y1="151.0169" y2="313.8159"><stop offset="0" stop-color="#009ae5"/><stop offset=".18" stop-color="#0490dd"/><stop offset=".49" stop-color="#1073c6"/><stop offset=".89" stop-color="#2346a1"/><stop offset="1" stop-color="#293896"/></linearGradient><linearGradient id="h" gradientTransform="matrix(1 0 0 -1 0 532)" gradientUnits="userSpaceOnUse" x1="840.5507" x2="590.5507" y1="580.0609" y2="-15.9391"><stop offset="0" stop-color="#4e9fff"/><stop offset=".4415" stop-color="#087cfa"/><stop offset="1" stop-color="#0060ef"/></linearGradient><path d="m450 379 589-273.5 109 73.5-604 331.5z" fill="url(#a)"/><path d="m1142.5 420.5-103.5-315 109 73.5 42 209z" fill="url(#b)"/><path d="m1142.5 420.5-123-96 26.5-20.5 144 84z" fill="url(#c)"/><path d="m946.5 540.5 73-216 26.5-20.5-91 232.5z" fill="url(#d)"/><g clip-rule="evenodd" fill-rule="evenodd"><path d="m797.7 388.7c43.1-3.8 84.5-18.8 120-43.6s63.8-58.6 82.1-97.8c-22.7-32.5-53-59-88.1-77.3s-74.4-28-114-28c-7.2 0-14.4.3-21.6 1-18.3 39.3-25.9 82.6-22.1 125.8s18.8 84.4 43.7 119.9z" fill="url(#e)"/><path d="m776.3 143c52.5 21.4 97.6 57.6 129.8 104.3h93.6c-22.7-32.5-52.8-59.1-88-77.4-35.1-18.3-74.2-27.9-113.8-27.9-7.1 0-14.4.3-21.6 1z" fill="url(#f)"/><path d="m906.1 247.3c-11.3 74.4-108.5 141.4-108.5 141.4 88.4-8.4 165.9-61.3 202-141.4z" fill="url(#g)"/></g><path d="m450 379 220-389h366l-492 520.5z" fill="url(#h)"/></svg>